<?xml version="1.0" encoding="UTF-8" standalone="no"?>
<!-- Created with Inkscape (http://www.inkscape.org/) -->

<svg
   width="82.819054mm"
   height="82.904869mm"
   viewBox="0 0 82.819054 82.904869"
   version="1.1"
   id="svg1"
   inkscape:version="1.3.2 (091e20e, 2023-11-25)"
   sodipodi:docname="fig-1.svg"
   xmlns:inkscape="http://www.inkscape.org/namespaces/inkscape"
   xmlns:sodipodi="http://sodipodi.sourceforge.net/DTD/sodipodi-0.dtd"
   xmlns="http://www.w3.org/2000/svg"
   xmlns:svg="http://www.w3.org/2000/svg">
  <sodipodi:namedview
     id="namedview1"
     pagecolor="#ffffff"
     bordercolor="#000000"
     borderopacity="0.25"
     inkscape:showpageshadow="2"
     inkscape:pageopacity="0.0"
     inkscape:pagecheckerboard="0"
     inkscape:deskcolor="#d1d1d1"
     inkscape:document-units="mm"
     inkscape:zoom="0.2102413"
     inkscape:cx="-1136.789"
     inkscape:cy="-185.50113"
     inkscape:window-width="1312"
     inkscape:window-height="449"
     inkscape:window-x="0"
     inkscape:window-y="38"
     inkscape:window-maximized="0"
     inkscape:current-layer="layer1" />
  <defs
     id="defs1">
    <clipPath
       id="clip-0">
      <path
         clip-rule="nonzero"
         d="M 188.50391,56.691406 H 363 V 231 H 188.50391 Z m 0,0"
         id="path79" />
    </clipPath>
    <clipPath
       id="clip-1">
      <path
         clip-rule="nonzero"
         d="m 210,78 h 1 v 213.97266 h -1 z m 0,0"
         id="path80" />
    </clipPath>
    <clipPath
       id="clip-2">
      <path
         clip-rule="nonzero"
         d="m 252,78 h 2 v 213.97266 h -2 z m 0,0"
         id="path81" />
    </clipPath>
    <clipPath
       id="clip-3">
      <path
         clip-rule="nonzero"
         d="m 295,78 h 2 v 213.97266 h -2 z m 0,0"
         id="path82" />
    </clipPath>
    <clipPath
       id="clip-4">
      <path
         clip-rule="nonzero"
         d="m 337,78 h 2 v 213.97266 h -2 z m 0,0"
         id="path83" />
    </clipPath>
    <clipPath
       id="clip-5">
      <path
         clip-rule="nonzero"
         d="m 380,78 h 2 v 213.97266 h -2 z m 0,0"
         id="path84" />
    </clipPath>
    <clipPath
       id="clip-6">
      <path
         clip-rule="nonzero"
         d="m 422,78 h 1.78516 V 291.97266 H 422 Z m 0,0"
         id="path85" />
    </clipPath>
    <clipPath
       id="clip-7">
      <path
         clip-rule="nonzero"
         d="m 210,291 h 213.78516 v 0.97266 H 210 Z m 0,0"
         id="path86" />
    </clipPath>
    <clipPath
       id="clip-8">
      <path
         clip-rule="nonzero"
         d="m 210,248 h 213.78516 v 2 H 210 Z m 0,0"
         id="path87" />
    </clipPath>
    <clipPath
       id="clip-9">
      <path
         clip-rule="nonzero"
         d="m 210,206 h 213.78516 v 1 H 210 Z m 0,0"
         id="path88" />
    </clipPath>
    <clipPath
       id="clip-10">
      <path
         clip-rule="nonzero"
         d="m 210,163 h 213.78516 v 2 H 210 Z m 0,0"
         id="path89" />
    </clipPath>
    <clipPath
       id="clip-11">
      <path
         clip-rule="nonzero"
         d="m 210,120 h 213.78516 v 2 H 210 Z m 0,0"
         id="path90" />
    </clipPath>
    <clipPath
       id="clip-12">
      <path
         clip-rule="nonzero"
         d="m 210,78 h 213.78516 v 2 H 210 Z m 0,0"
         id="path91" />
    </clipPath>
  </defs>
  <g
     inkscape:label="Layer 1"
     inkscape:groupmode="layer"
     id="layer1"
     transform="translate(-405.34167,-197.64374)">
    <g
       fill="#ffffff"
       fill-opacity="1"
       id="g91"
       transform="matrix(0.35277777,0,0,0.35277777,338.66957,177.54715)">
      <g
         id="use91"
         transform="translate(231.79065,100.0629)">
        <path
           d="M 1.996094,0 C 1.996094,-1.101562 1.101562,-1.996094 0,-1.996094 -1.101562,-1.996094 -1.996094,-1.101562 -1.996094,0 -1.996094,1.101562 -1.101562,1.996094 0,1.996094 1.101562,1.996094 1.996094,1.101562 1.996094,0"
           id="path3" />
      </g>
    </g>
    <g
       fill="#000000"
       fill-opacity="1"
       id="g92"
       transform="matrix(0.35277777,0,0,0.35277777,338.66957,177.54715)">
      <g
         id="use92"
         transform="translate(231.79065,100.0629)">
        <path
           d="m 1.996094,0 c 0,-1.101562 -0.894532,-1.996094 -1.996094,-1.996094 -1.101562,0 -1.996094,0.894532 -1.996094,1.996094 0,1.101562 0.894532,1.996094 1.996094,1.996094 1.101562,0 1.996094,-0.894532 1.996094,-1.996094 z m 0,0 H 1.796875 c 0,-0.992188 -0.804687,-1.796875 -1.796875,-1.796875 -0.992188,0 -1.796875,0.804687 -1.796875,1.796875 0,0.992188 0.804687,1.796875 1.796875,1.796875 0.992188,0 1.796875,-0.804687 1.796875,-1.796875"
           id="path28" />
      </g>
    </g>
    <g
       fill="#ffffff"
       fill-opacity="1"
       id="g93"
       transform="matrix(0.35277777,0,0,0.35277777,338.66957,177.54715)">
      <g
         id="use93"
         transform="translate(231.79065,142.6335)">
        <path
           d="M 1.996094,0 C 1.996094,-1.101562 1.101562,-1.996094 0,-1.996094 -1.101562,-1.996094 -1.996094,-1.101562 -1.996094,0 -1.996094,1.101562 -1.101562,1.996094 0,1.996094 1.101562,1.996094 1.996094,1.101562 1.996094,0"
           id="path4" />
      </g>
    </g>
    <g
       fill="#000000"
       fill-opacity="1"
       id="g94"
       transform="matrix(0.35277777,0,0,0.35277777,338.66957,177.54715)">
      <g
         id="use94"
         transform="translate(231.79065,142.6335)">
        <path
           d="m 1.996094,0 c 0,-1.101562 -0.894532,-1.996094 -1.996094,-1.996094 -1.101562,0 -1.996094,0.894532 -1.996094,1.996094 0,1.101562 0.894532,1.996094 1.996094,1.996094 1.101562,0 1.996094,-0.894532 1.996094,-1.996094 z m 0,0 H 1.796875 c 0,-0.992188 -0.804687,-1.796875 -1.796875,-1.796875 -0.992188,0 -1.796875,0.804687 -1.796875,1.796875 0,0.992188 0.804687,1.796875 1.796875,1.796875 0.992188,0 1.796875,-0.804687 1.796875,-1.796875"
           id="path29" />
      </g>
    </g>
    <g
       fill="#ffffff"
       fill-opacity="1"
       id="g95"
       transform="matrix(0.35277777,0,0,0.35277777,338.66957,177.54715)">
      <g
         id="use95"
         transform="translate(231.79065,185.20309)">
        <path
           d="M 1.996094,0 C 1.996094,-1.101562 1.101562,-1.996094 0,-1.996094 -1.101562,-1.996094 -1.996094,-1.101562 -1.996094,0 -1.996094,1.101562 -1.101562,1.996094 0,1.996094 1.101562,1.996094 1.996094,1.101562 1.996094,0"
           id="path5" />
      </g>
    </g>
    <g
       fill="#000000"
       fill-opacity="1"
       id="g96"
       transform="matrix(0.35277777,0,0,0.35277777,338.66957,177.54715)">
      <g
         id="use96"
         transform="translate(231.79065,185.20309)">
        <path
           d="m 1.996094,0 c 0,-1.101562 -0.894532,-1.996094 -1.996094,-1.996094 -1.101562,0 -1.996094,0.894532 -1.996094,1.996094 0,1.101562 0.894532,1.996094 1.996094,1.996094 1.101562,0 1.996094,-0.894532 1.996094,-1.996094 z m 0,0 H 1.796875 c 0,-0.992188 -0.804687,-1.796875 -1.796875,-1.796875 -0.992188,0 -1.796875,0.804687 -1.796875,1.796875 0,0.992188 0.804687,1.796875 1.796875,1.796875 0.992188,0 1.796875,-0.804687 1.796875,-1.796875"
           id="path30" />
      </g>
    </g>
    <g
       fill="#ffffff"
       fill-opacity="1"
       id="g97"
       transform="matrix(0.35277777,0,0,0.35277777,338.66957,177.54715)">
      <g
         id="use97"
         transform="translate(231.79065,227.77339)">
        <path
           d="M 1.996094,0 C 1.996094,-1.101562 1.101562,-1.996094 0,-1.996094 -1.101562,-1.996094 -1.996094,-1.101562 -1.996094,0 -1.996094,1.101562 -1.101562,1.996094 0,1.996094 1.101562,1.996094 1.996094,1.101562 1.996094,0"
           id="path6" />
      </g>
    </g>
    <g
       fill="#000000"
       fill-opacity="1"
       id="g98"
       transform="matrix(0.35277777,0,0,0.35277777,338.66957,177.54715)">
      <g
         id="use98"
         transform="translate(231.79065,227.77339)">
        <path
           d="m 1.996094,0 c 0,-1.101562 -0.894532,-1.996094 -1.996094,-1.996094 -1.101562,0 -1.996094,0.894532 -1.996094,1.996094 0,1.101562 0.894532,1.996094 1.996094,1.996094 1.101562,0 1.996094,-0.894532 1.996094,-1.996094 z m 0,0 H 1.796875 c 0,-0.992188 -0.804687,-1.796875 -1.796875,-1.796875 -0.992188,0 -1.796875,0.804687 -1.796875,1.796875 0,0.992188 0.804687,1.796875 1.796875,1.796875 0.992188,0 1.796875,-0.804687 1.796875,-1.796875"
           id="path31" />
      </g>
    </g>
    <g
       fill="#ffffff"
       fill-opacity="1"
       id="g99"
       transform="matrix(0.35277777,0,0,0.35277777,338.66957,177.54715)">
      <g
         id="use99"
         transform="translate(231.79065,270.3436)">
        <path
           d="M 1.996094,0 C 1.996094,-1.101562 1.101562,-1.996094 0,-1.996094 -1.101562,-1.996094 -1.996094,-1.101562 -1.996094,0 -1.996094,1.101562 -1.101562,1.996094 0,1.996094 1.101562,1.996094 1.996094,1.101562 1.996094,0"
           id="path7" />
      </g>
    </g>
    <g
       fill="#000000"
       fill-opacity="1"
       id="g100"
       transform="matrix(0.35277777,0,0,0.35277777,338.66957,177.54715)">
      <g
         id="use100"
         transform="translate(231.79065,270.3436)">
        <path
           d="m 1.996094,0 c 0,-1.101562 -0.894532,-1.996094 -1.996094,-1.996094 -1.101562,0 -1.996094,0.894532 -1.996094,1.996094 0,1.101562 0.894532,1.996094 1.996094,1.996094 1.101562,0 1.996094,-0.894532 1.996094,-1.996094 z m 0,0 H 1.796875 c 0,-0.992188 -0.804687,-1.796875 -1.796875,-1.796875 -0.992188,0 -1.796875,0.804687 -1.796875,1.796875 0,0.992188 0.804687,1.796875 1.796875,1.796875 0.992188,0 1.796875,-0.804687 1.796875,-1.796875"
           id="path32" />
      </g>
    </g>
    <g
       fill="#ffffff"
       fill-opacity="1"
       id="g101"
       transform="matrix(0.35277777,0,0,0.35277777,338.66957,177.54715)">
      <g
         id="use101"
         transform="translate(274.36075,100.0629)">
        <path
           d="M 1.996094,0 C 1.996094,-1.101562 1.101562,-1.996094 0,-1.996094 -1.101562,-1.996094 -1.996094,-1.101562 -1.996094,0 -1.996094,1.101562 -1.101562,1.996094 0,1.996094 1.101562,1.996094 1.996094,1.101562 1.996094,0"
           id="path8" />
      </g>
    </g>
    <g
       fill="#000000"
       fill-opacity="1"
       id="g102"
       transform="matrix(0.35277777,0,0,0.35277777,338.66957,177.54715)">
      <g
         id="use102"
         transform="translate(274.36075,100.0629)">
        <path
           d="m 1.996094,0 c 0,-1.101562 -0.894532,-1.996094 -1.996094,-1.996094 -1.101562,0 -1.996094,0.894532 -1.996094,1.996094 0,1.101562 0.894532,1.996094 1.996094,1.996094 1.101562,0 1.996094,-0.894532 1.996094,-1.996094 z m 0,0 H 1.796875 c 0,-0.992188 -0.804687,-1.796875 -1.796875,-1.796875 -0.992188,0 -1.796875,0.804687 -1.796875,1.796875 0,0.992188 0.804687,1.796875 1.796875,1.796875 0.992188,0 1.796875,-0.804687 1.796875,-1.796875"
           id="path33" />
      </g>
    </g>
    <g
       fill="#ffffff"
       fill-opacity="1"
       id="g103"
       transform="matrix(0.35277777,0,0,0.35277777,338.66957,177.54715)">
      <g
         id="use103"
         transform="translate(274.36075,142.6335)">
        <path
           d="M 1.996094,0 C 1.996094,-1.101562 1.101562,-1.996094 0,-1.996094 -1.101562,-1.996094 -1.996094,-1.101562 -1.996094,0 -1.996094,1.101562 -1.101562,1.996094 0,1.996094 1.101562,1.996094 1.996094,1.101562 1.996094,0"
           id="path9" />
      </g>
    </g>
    <g
       fill="#000000"
       fill-opacity="1"
       id="g104"
       transform="matrix(0.35277777,0,0,0.35277777,338.66957,177.54715)">
      <g
         id="use104"
         transform="translate(274.36075,142.6335)">
        <path
           d="m 1.996094,0 c 0,-1.101562 -0.894532,-1.996094 -1.996094,-1.996094 -1.101562,0 -1.996094,0.894532 -1.996094,1.996094 0,1.101562 0.894532,1.996094 1.996094,1.996094 1.101562,0 1.996094,-0.894532 1.996094,-1.996094 z m 0,0 H 1.796875 c 0,-0.992188 -0.804687,-1.796875 -1.796875,-1.796875 -0.992188,0 -1.796875,0.804687 -1.796875,1.796875 0,0.992188 0.804687,1.796875 1.796875,1.796875 0.992188,0 1.796875,-0.804687 1.796875,-1.796875"
           id="path34" />
      </g>
    </g>
    <g
       fill="#ffffff"
       fill-opacity="1"
       id="g105"
       transform="matrix(0.35277777,0,0,0.35277777,338.66957,177.54715)">
      <g
         id="use105"
         transform="translate(274.36075,185.20309)">
        <path
           d="M 1.996094,0 C 1.996094,-1.101562 1.101562,-1.996094 0,-1.996094 -1.101562,-1.996094 -1.996094,-1.101562 -1.996094,0 -1.996094,1.101562 -1.101562,1.996094 0,1.996094 1.101562,1.996094 1.996094,1.101562 1.996094,0"
           id="path10" />
      </g>
    </g>
    <g
       fill="#000000"
       fill-opacity="1"
       id="g106"
       transform="matrix(0.35277777,0,0,0.35277777,338.66957,177.54715)">
      <g
         id="use106"
         transform="translate(274.36075,185.20309)">
        <path
           d="m 1.996094,0 c 0,-1.101562 -0.894532,-1.996094 -1.996094,-1.996094 -1.101562,0 -1.996094,0.894532 -1.996094,1.996094 0,1.101562 0.894532,1.996094 1.996094,1.996094 1.101562,0 1.996094,-0.894532 1.996094,-1.996094 z m 0,0 H 1.796875 c 0,-0.992188 -0.804687,-1.796875 -1.796875,-1.796875 -0.992188,0 -1.796875,0.804687 -1.796875,1.796875 0,0.992188 0.804687,1.796875 1.796875,1.796875 0.992188,0 1.796875,-0.804687 1.796875,-1.796875"
           id="path35" />
      </g>
    </g>
    <g
       fill="#ffffff"
       fill-opacity="1"
       id="g107"
       transform="matrix(0.35277777,0,0,0.35277777,338.66957,177.54715)">
      <g
         id="use107"
         transform="translate(274.36075,227.77339)">
        <path
           d="M 1.996094,0 C 1.996094,-1.101562 1.101562,-1.996094 0,-1.996094 -1.101562,-1.996094 -1.996094,-1.101562 -1.996094,0 -1.996094,1.101562 -1.101562,1.996094 0,1.996094 1.101562,1.996094 1.996094,1.101562 1.996094,0"
           id="path11" />
      </g>
    </g>
    <g
       fill="#000000"
       fill-opacity="1"
       id="g108"
       transform="matrix(0.35277777,0,0,0.35277777,338.66957,177.54715)">
      <g
         id="use108"
         transform="translate(274.36075,227.77339)">
        <path
           d="m 1.996094,0 c 0,-1.101562 -0.894532,-1.996094 -1.996094,-1.996094 -1.101562,0 -1.996094,0.894532 -1.996094,1.996094 0,1.101562 0.894532,1.996094 1.996094,1.996094 1.101562,0 1.996094,-0.894532 1.996094,-1.996094 z m 0,0 H 1.796875 c 0,-0.992188 -0.804687,-1.796875 -1.796875,-1.796875 -0.992188,0 -1.796875,0.804687 -1.796875,1.796875 0,0.992188 0.804687,1.796875 1.796875,1.796875 0.992188,0 1.796875,-0.804687 1.796875,-1.796875"
           id="path36" />
      </g>
    </g>
    <g
       fill="#ffffff"
       fill-opacity="1"
       id="g109"
       transform="matrix(0.35277777,0,0,0.35277777,338.66957,177.54715)">
      <g
         id="use109"
         transform="translate(274.36075,270.3436)">
        <path
           d="M 1.996094,0 C 1.996094,-1.101562 1.101562,-1.996094 0,-1.996094 -1.101562,-1.996094 -1.996094,-1.101562 -1.996094,0 -1.996094,1.101562 -1.101562,1.996094 0,1.996094 1.101562,1.996094 1.996094,1.101562 1.996094,0"
           id="path12" />
      </g>
    </g>
    <g
       fill="#000000"
       fill-opacity="1"
       id="g110"
       transform="matrix(0.35277777,0,0,0.35277777,338.66957,177.54715)">
      <g
         id="use110"
         transform="translate(274.36075,270.3436)">
        <path
           d="m 1.996094,0 c 0,-1.101562 -0.894532,-1.996094 -1.996094,-1.996094 -1.101562,0 -1.996094,0.894532 -1.996094,1.996094 0,1.101562 0.894532,1.996094 1.996094,1.996094 1.101562,0 1.996094,-0.894532 1.996094,-1.996094 z m 0,0 H 1.796875 c 0,-0.992188 -0.804687,-1.796875 -1.796875,-1.796875 -0.992188,0 -1.796875,0.804687 -1.796875,1.796875 0,0.992188 0.804687,1.796875 1.796875,1.796875 0.992188,0 1.796875,-0.804687 1.796875,-1.796875"
           id="path37" />
      </g>
    </g>
    <g
       fill="#ffffff"
       fill-opacity="1"
       id="g111"
       transform="matrix(0.35277777,0,0,0.35277777,338.66957,177.54715)">
      <g
         id="use111"
         transform="translate(316.93063,100.0629)">
        <path
           d="M 1.996094,0 C 1.996094,-1.101562 1.101562,-1.996094 0,-1.996094 -1.101562,-1.996094 -1.996094,-1.101562 -1.996094,0 -1.996094,1.101562 -1.101562,1.996094 0,1.996094 1.101562,1.996094 1.996094,1.101562 1.996094,0"
           id="path13" />
      </g>
    </g>
    <g
       fill="#000000"
       fill-opacity="1"
       id="g112"
       transform="matrix(0.35277777,0,0,0.35277777,338.66957,177.54715)">
      <g
         id="use112"
         transform="translate(316.93063,100.0629)">
        <path
           d="m 1.996094,0 c 0,-1.101562 -0.894532,-1.996094 -1.996094,-1.996094 -1.101562,0 -1.996094,0.894532 -1.996094,1.996094 0,1.101562 0.894532,1.996094 1.996094,1.996094 1.101562,0 1.996094,-0.894532 1.996094,-1.996094 z m 0,0 H 1.796875 c 0,-0.992188 -0.804687,-1.796875 -1.796875,-1.796875 -0.992188,0 -1.796875,0.804687 -1.796875,1.796875 0,0.992188 0.804687,1.796875 1.796875,1.796875 0.992188,0 1.796875,-0.804687 1.796875,-1.796875"
           id="path38" />
      </g>
    </g>
    <g
       fill="#ffffff"
       fill-opacity="1"
       id="g113"
       transform="matrix(0.35277777,0,0,0.35277777,338.66957,177.54715)">
      <g
         id="use113"
         transform="translate(316.93063,142.6335)">
        <path
           d="M 1.996094,0 C 1.996094,-1.101562 1.101562,-1.996094 0,-1.996094 -1.101562,-1.996094 -1.996094,-1.101562 -1.996094,0 -1.996094,1.101562 -1.101562,1.996094 0,1.996094 1.101562,1.996094 1.996094,1.101562 1.996094,0"
           id="path14" />
      </g>
    </g>
    <g
       fill="#000000"
       fill-opacity="1"
       id="g114"
       transform="matrix(0.35277777,0,0,0.35277777,338.66957,177.54715)">
      <g
         id="use114"
         transform="translate(316.93063,142.6335)">
        <path
           d="m 1.996094,0 c 0,-1.101562 -0.894532,-1.996094 -1.996094,-1.996094 -1.101562,0 -1.996094,0.894532 -1.996094,1.996094 0,1.101562 0.894532,1.996094 1.996094,1.996094 1.101562,0 1.996094,-0.894532 1.996094,-1.996094 z m 0,0 H 1.796875 c 0,-0.992188 -0.804687,-1.796875 -1.796875,-1.796875 -0.992188,0 -1.796875,0.804687 -1.796875,1.796875 0,0.992188 0.804687,1.796875 1.796875,1.796875 0.992188,0 1.796875,-0.804687 1.796875,-1.796875"
           id="path39" />
      </g>
    </g>
    <g
       fill="#ffffff"
       fill-opacity="1"
       id="g115"
       transform="matrix(0.35277777,0,0,0.35277777,338.66957,177.54715)">
      <g
         id="use115"
         transform="translate(316.93063,227.77339)">
        <path
           d="M 1.996094,0 C 1.996094,-1.101562 1.101562,-1.996094 0,-1.996094 -1.101562,-1.996094 -1.996094,-1.101562 -1.996094,0 -1.996094,1.101562 -1.101562,1.996094 0,1.996094 1.101562,1.996094 1.996094,1.101562 1.996094,0"
           id="path15" />
      </g>
    </g>
    <g
       fill="#000000"
       fill-opacity="1"
       id="g116"
       transform="matrix(0.35277777,0,0,0.35277777,338.66957,177.54715)">
      <g
         id="use116"
         transform="translate(316.93063,227.77339)">
        <path
           d="m 1.996094,0 c 0,-1.101562 -0.894532,-1.996094 -1.996094,-1.996094 -1.101562,0 -1.996094,0.894532 -1.996094,1.996094 0,1.101562 0.894532,1.996094 1.996094,1.996094 1.101562,0 1.996094,-0.894532 1.996094,-1.996094 z m 0,0 H 1.796875 c 0,-0.992188 -0.804687,-1.796875 -1.796875,-1.796875 -0.992188,0 -1.796875,0.804687 -1.796875,1.796875 0,0.992188 0.804687,1.796875 1.796875,1.796875 0.992188,0 1.796875,-0.804687 1.796875,-1.796875"
           id="path40" />
      </g>
    </g>
    <g
       fill="#ffffff"
       fill-opacity="1"
       id="g117"
       transform="matrix(0.35277777,0,0,0.35277777,338.66957,177.54715)">
      <g
         id="use117"
         transform="translate(316.93063,270.3436)">
        <path
           d="M 1.996094,0 C 1.996094,-1.101562 1.101562,-1.996094 0,-1.996094 -1.101562,-1.996094 -1.996094,-1.101562 -1.996094,0 -1.996094,1.101562 -1.101562,1.996094 0,1.996094 1.101562,1.996094 1.996094,1.101562 1.996094,0"
           id="path16" />
      </g>
    </g>
    <g
       fill="#000000"
       fill-opacity="1"
       id="g118"
       transform="matrix(0.35277777,0,0,0.35277777,338.66957,177.54715)">
      <g
         id="use118"
         transform="translate(316.93063,270.3436)">
        <path
           d="m 1.996094,0 c 0,-1.101562 -0.894532,-1.996094 -1.996094,-1.996094 -1.101562,0 -1.996094,0.894532 -1.996094,1.996094 0,1.101562 0.894532,1.996094 1.996094,1.996094 1.101562,0 1.996094,-0.894532 1.996094,-1.996094 z m 0,0 H 1.796875 c 0,-0.992188 -0.804687,-1.796875 -1.796875,-1.796875 -0.992188,0 -1.796875,0.804687 -1.796875,1.796875 0,0.992188 0.804687,1.796875 1.796875,1.796875 0.992188,0 1.796875,-0.804687 1.796875,-1.796875"
           id="path41" />
      </g>
    </g>
    <g
       fill="#ffffff"
       fill-opacity="1"
       id="g119"
       transform="matrix(0.35277777,0,0,0.35277777,338.66957,177.54715)">
      <g
         id="use119"
         transform="translate(359.50125,100.0629)">
        <path
           d="M 1.996094,0 C 1.996094,-1.101562 1.101562,-1.996094 0,-1.996094 -1.101562,-1.996094 -1.996094,-1.101562 -1.996094,0 -1.996094,1.101562 -1.101562,1.996094 0,1.996094 1.101562,1.996094 1.996094,1.101562 1.996094,0"
           id="path17" />
      </g>
    </g>
    <g
       fill="#000000"
       fill-opacity="1"
       id="g120"
       transform="matrix(0.35277777,0,0,0.35277777,338.66957,177.54715)">
      <g
         id="use120"
         transform="translate(359.50125,100.0629)">
        <path
           d="m 1.996094,0 c 0,-1.101562 -0.894532,-1.996094 -1.996094,-1.996094 -1.101562,0 -1.996094,0.894532 -1.996094,1.996094 0,1.101562 0.894532,1.996094 1.996094,1.996094 1.101562,0 1.996094,-0.894532 1.996094,-1.996094 z m 0,0 H 1.796875 c 0,-0.992188 -0.804687,-1.796875 -1.796875,-1.796875 -0.992188,0 -1.796875,0.804687 -1.796875,1.796875 0,0.992188 0.804687,1.796875 1.796875,1.796875 0.992188,0 1.796875,-0.804687 1.796875,-1.796875"
           id="path42" />
      </g>
    </g>
    <g
       fill="#ffffff"
       fill-opacity="1"
       id="g121"
       transform="matrix(0.35277777,0,0,0.35277777,338.66957,177.54715)">
      <g
         id="use121"
         transform="translate(359.50125,142.6335)">
        <path
           d="M 1.996094,0 C 1.996094,-1.101562 1.101562,-1.996094 0,-1.996094 -1.101562,-1.996094 -1.996094,-1.101562 -1.996094,0 -1.996094,1.101562 -1.101562,1.996094 0,1.996094 1.101562,1.996094 1.996094,1.101562 1.996094,0"
           id="path18" />
      </g>
    </g>
    <g
       fill="#000000"
       fill-opacity="1"
       id="g122"
       transform="matrix(0.35277777,0,0,0.35277777,338.66957,177.54715)">
      <g
         id="use122"
         transform="translate(359.50125,142.6335)">
        <path
           d="m 1.996094,0 c 0,-1.101562 -0.894532,-1.996094 -1.996094,-1.996094 -1.101562,0 -1.996094,0.894532 -1.996094,1.996094 0,1.101562 0.894532,1.996094 1.996094,1.996094 1.101562,0 1.996094,-0.894532 1.996094,-1.996094 z m 0,0 H 1.796875 c 0,-0.992188 -0.804687,-1.796875 -1.796875,-1.796875 -0.992188,0 -1.796875,0.804687 -1.796875,1.796875 0,0.992188 0.804687,1.796875 1.796875,1.796875 0.992188,0 1.796875,-0.804687 1.796875,-1.796875"
           id="path43" />
      </g>
    </g>
    <g
       fill="#ffffff"
       fill-opacity="1"
       id="g123"
       transform="matrix(0.35277777,0,0,0.35277777,338.66957,177.54715)">
      <g
         id="use123"
         transform="translate(359.50125,185.20309)">
        <path
           d="M 1.996094,0 C 1.996094,-1.101562 1.101562,-1.996094 0,-1.996094 -1.101562,-1.996094 -1.996094,-1.101562 -1.996094,0 -1.996094,1.101562 -1.101562,1.996094 0,1.996094 1.101562,1.996094 1.996094,1.101562 1.996094,0"
           id="path19" />
      </g>
    </g>
    <g
       fill="#000000"
       fill-opacity="1"
       id="g124"
       transform="matrix(0.35277777,0,0,0.35277777,338.66957,177.54715)">
      <g
         id="use124"
         transform="translate(359.50125,185.20309)">
        <path
           d="m 1.996094,0 c 0,-1.101562 -0.894532,-1.996094 -1.996094,-1.996094 -1.101562,0 -1.996094,0.894532 -1.996094,1.996094 0,1.101562 0.894532,1.996094 1.996094,1.996094 1.101562,0 1.996094,-0.894532 1.996094,-1.996094 z m 0,0 H 1.796875 c 0,-0.992188 -0.804687,-1.796875 -1.796875,-1.796875 -0.992188,0 -1.796875,0.804687 -1.796875,1.796875 0,0.992188 0.804687,1.796875 1.796875,1.796875 0.992188,0 1.796875,-0.804687 1.796875,-1.796875"
           id="path44" />
      </g>
    </g>
    <g
       fill="#ffffff"
       fill-opacity="1"
       id="g125"
       transform="matrix(0.35277777,0,0,0.35277777,338.66957,177.54715)">
      <g
         id="use125"
         transform="translate(359.50125,227.77339)">
        <path
           d="M 1.996094,0 C 1.996094,-1.101562 1.101562,-1.996094 0,-1.996094 -1.101562,-1.996094 -1.996094,-1.101562 -1.996094,0 -1.996094,1.101562 -1.101562,1.996094 0,1.996094 1.101562,1.996094 1.996094,1.101562 1.996094,0"
           id="path20" />
      </g>
    </g>
    <g
       fill="#000000"
       fill-opacity="1"
       id="g126"
       transform="matrix(0.35277777,0,0,0.35277777,338.66957,177.54715)">
      <g
         id="use126"
         transform="translate(359.50125,227.77339)">
        <path
           d="m 1.996094,0 c 0,-1.101562 -0.894532,-1.996094 -1.996094,-1.996094 -1.101562,0 -1.996094,0.894532 -1.996094,1.996094 0,1.101562 0.894532,1.996094 1.996094,1.996094 1.101562,0 1.996094,-0.894532 1.996094,-1.996094 z m 0,0 H 1.796875 c 0,-0.992188 -0.804687,-1.796875 -1.796875,-1.796875 -0.992188,0 -1.796875,0.804687 -1.796875,1.796875 0,0.992188 0.804687,1.796875 1.796875,1.796875 0.992188,0 1.796875,-0.804687 1.796875,-1.796875"
           id="path45" />
      </g>
    </g>
    <g
       fill="#ffffff"
       fill-opacity="1"
       id="g127"
       transform="matrix(0.35277777,0,0,0.35277777,338.66957,177.54715)">
      <g
         id="use127"
         transform="translate(359.50125,270.3436)">
        <path
           d="M 1.996094,0 C 1.996094,-1.101562 1.101562,-1.996094 0,-1.996094 -1.101562,-1.996094 -1.996094,-1.101562 -1.996094,0 -1.996094,1.101562 -1.101562,1.996094 0,1.996094 1.101562,1.996094 1.996094,1.101562 1.996094,0"
           id="path21" />
      </g>
    </g>
    <g
       fill="#000000"
       fill-opacity="1"
       id="g128"
       transform="matrix(0.35277777,0,0,0.35277777,338.66957,177.54715)">
      <g
         id="use128"
         transform="translate(359.50125,270.3436)">
        <path
           d="m 1.996094,0 c 0,-1.101562 -0.894532,-1.996094 -1.996094,-1.996094 -1.101562,0 -1.996094,0.894532 -1.996094,1.996094 0,1.101562 0.894532,1.996094 1.996094,1.996094 1.101562,0 1.996094,-0.894532 1.996094,-1.996094 z m 0,0 H 1.796875 c 0,-0.992188 -0.804687,-1.796875 -1.796875,-1.796875 -0.992188,0 -1.796875,0.804687 -1.796875,1.796875 0,0.992188 0.804687,1.796875 1.796875,1.796875 0.992188,0 1.796875,-0.804687 1.796875,-1.796875"
           id="path46" />
      </g>
    </g>
    <g
       fill="#ffffff"
       fill-opacity="1"
       id="g129"
       transform="matrix(0.35277777,0,0,0.35277777,338.66957,177.54715)">
      <g
         id="use129"
         transform="translate(402.07083,100.0629)">
        <path
           d="M 1.996094,0 C 1.996094,-1.101562 1.101562,-1.996094 0,-1.996094 -1.101562,-1.996094 -1.996094,-1.101562 -1.996094,0 -1.996094,1.101562 -1.101562,1.996094 0,1.996094 1.101562,1.996094 1.996094,1.101562 1.996094,0"
           id="path22" />
      </g>
    </g>
    <g
       fill="#000000"
       fill-opacity="1"
       id="g130"
       transform="matrix(0.35277777,0,0,0.35277777,338.66957,177.54715)">
      <g
         id="use130"
         transform="translate(402.07083,100.0629)">
        <path
           d="m 1.996094,0 c 0,-1.101562 -0.894532,-1.996094 -1.996094,-1.996094 -1.101562,0 -1.996094,0.894532 -1.996094,1.996094 0,1.101562 0.894532,1.996094 1.996094,1.996094 1.101562,0 1.996094,-0.894532 1.996094,-1.996094 z m 0,0 H 1.796875 c 0,-0.992188 -0.804687,-1.796875 -1.796875,-1.796875 -0.992188,0 -1.796875,0.804687 -1.796875,1.796875 0,0.992188 0.804687,1.796875 1.796875,1.796875 0.992188,0 1.796875,-0.804687 1.796875,-1.796875"
           id="path47" />
      </g>
    </g>
    <g
       fill="#ffffff"
       fill-opacity="1"
       id="g131"
       transform="matrix(0.35277777,0,0,0.35277777,338.66957,177.54715)">
      <g
         id="use131"
         transform="translate(402.07083,142.6335)">
        <path
           d="M 1.996094,0 C 1.996094,-1.101562 1.101562,-1.996094 0,-1.996094 -1.101562,-1.996094 -1.996094,-1.101562 -1.996094,0 -1.996094,1.101562 -1.101562,1.996094 0,1.996094 1.101562,1.996094 1.996094,1.101562 1.996094,0"
           id="path23" />
      </g>
    </g>
    <g
       fill="#000000"
       fill-opacity="1"
       id="g132"
       transform="matrix(0.35277777,0,0,0.35277777,338.66957,177.54715)">
      <g
         id="use132"
         transform="translate(402.07083,142.6335)">
        <path
           d="m 1.996094,0 c 0,-1.101562 -0.894532,-1.996094 -1.996094,-1.996094 -1.101562,0 -1.996094,0.894532 -1.996094,1.996094 0,1.101562 0.894532,1.996094 1.996094,1.996094 1.101562,0 1.996094,-0.894532 1.996094,-1.996094 z m 0,0 H 1.796875 c 0,-0.992188 -0.804687,-1.796875 -1.796875,-1.796875 -0.992188,0 -1.796875,0.804687 -1.796875,1.796875 0,0.992188 0.804687,1.796875 1.796875,1.796875 0.992188,0 1.796875,-0.804687 1.796875,-1.796875"
           id="path48" />
      </g>
    </g>
    <g
       fill="#ffffff"
       fill-opacity="1"
       id="g133"
       transform="matrix(0.35277777,0,0,0.35277777,338.66957,177.54715)">
      <g
         id="use133"
         transform="translate(402.07083,185.20309)">
        <path
           d="M 1.996094,0 C 1.996094,-1.101562 1.101562,-1.996094 0,-1.996094 -1.101562,-1.996094 -1.996094,-1.101562 -1.996094,0 -1.996094,1.101562 -1.101562,1.996094 0,1.996094 1.101562,1.996094 1.996094,1.101562 1.996094,0"
           id="path24" />
      </g>
    </g>
    <g
       fill="#000000"
       fill-opacity="1"
       id="g134"
       transform="matrix(0.35277777,0,0,0.35277777,338.66957,177.54715)">
      <g
         id="use134"
         transform="translate(402.07083,185.20309)">
        <path
           d="m 1.996094,0 c 0,-1.101562 -0.894532,-1.996094 -1.996094,-1.996094 -1.101562,0 -1.996094,0.894532 -1.996094,1.996094 0,1.101562 0.894532,1.996094 1.996094,1.996094 1.101562,0 1.996094,-0.894532 1.996094,-1.996094 z m 0,0 H 1.796875 c 0,-0.992188 -0.804687,-1.796875 -1.796875,-1.796875 -0.992188,0 -1.796875,0.804687 -1.796875,1.796875 0,0.992188 0.804687,1.796875 1.796875,1.796875 0.992188,0 1.796875,-0.804687 1.796875,-1.796875"
           id="path49" />
      </g>
    </g>
    <g
       fill="#ffffff"
       fill-opacity="1"
       id="g135"
       transform="matrix(0.35277777,0,0,0.35277777,338.66957,177.54715)">
      <g
         id="use135"
         transform="translate(402.07083,227.77339)">
        <path
           d="M 1.996094,0 C 1.996094,-1.101562 1.101562,-1.996094 0,-1.996094 -1.101562,-1.996094 -1.996094,-1.101562 -1.996094,0 -1.996094,1.101562 -1.101562,1.996094 0,1.996094 1.101562,1.996094 1.996094,1.101562 1.996094,0"
           id="path25" />
      </g>
    </g>
    <g
       fill="#000000"
       fill-opacity="1"
       id="g136"
       transform="matrix(0.35277777,0,0,0.35277777,338.66957,177.54715)">
      <g
         id="use136"
         transform="translate(402.07083,227.77339)">
        <path
           d="m 1.996094,0 c 0,-1.101562 -0.894532,-1.996094 -1.996094,-1.996094 -1.101562,0 -1.996094,0.894532 -1.996094,1.996094 0,1.101562 0.894532,1.996094 1.996094,1.996094 1.101562,0 1.996094,-0.894532 1.996094,-1.996094 z m 0,0 H 1.796875 c 0,-0.992188 -0.804687,-1.796875 -1.796875,-1.796875 -0.992188,0 -1.796875,0.804687 -1.796875,1.796875 0,0.992188 0.804687,1.796875 1.796875,1.796875 0.992188,0 1.796875,-0.804687 1.796875,-1.796875"
           id="path50" />
      </g>
    </g>
    <g
       fill="#ffffff"
       fill-opacity="1"
       id="g137"
       transform="matrix(0.35277777,0,0,0.35277777,338.66957,177.54715)">
      <g
         id="use137"
         transform="translate(402.07083,270.3436)">
        <path
           d="M 1.996094,0 C 1.996094,-1.101562 1.101562,-1.996094 0,-1.996094 -1.101562,-1.996094 -1.996094,-1.101562 -1.996094,0 -1.996094,1.101562 -1.101562,1.996094 0,1.996094 1.101562,1.996094 1.996094,1.101562 1.996094,0"
           id="path26" />
      </g>
    </g>
    <g
       fill="#000000"
       fill-opacity="1"
       id="g138"
       transform="matrix(0.35277777,0,0,0.35277777,338.66957,177.54715)">
      <g
         id="use138"
         transform="translate(402.07083,270.3436)">
        <path
           d="m 1.996094,0 c 0,-1.101562 -0.894532,-1.996094 -1.996094,-1.996094 -1.101562,0 -1.996094,0.894532 -1.996094,1.996094 0,1.101562 0.894532,1.996094 1.996094,1.996094 1.101562,0 1.996094,-0.894532 1.996094,-1.996094 z m 0,0 H 1.796875 c 0,-0.992188 -0.804687,-1.796875 -1.796875,-1.796875 -0.992188,0 -1.796875,0.804687 -1.796875,1.796875 0,0.992188 0.804687,1.796875 1.796875,1.796875 0.992188,0 1.796875,-0.804687 1.796875,-1.796875"
           id="path51" />
      </g>
    </g>
    <g
       clip-path="url(#clip-0)"
       id="g139"
       transform="matrix(0.35277777,0,0,0.35277777,338.66957,177.54715)">
      <path
         fill="none"
         stroke-width="17.0079"
         stroke-linecap="butt"
         stroke-linejoin="miter"
         stroke="#7f7f7f"
         stroke-opacity="1"
         stroke-dasharray="48.9833, 29.39"
         stroke-miterlimit="10"
         d="m 7.139005,853.82114 1.833755,0.50721 5.384218,1.56064 8.7396,2.57506 11.860885,3.55046 14.826107,4.48685 17.557232,5.50127 20.171309,6.35962 22.512269,7.296 24.73619,8.19338 26.68699,9.05173 28.48174,9.91008 30.04237,10.6904 31.48597,11.50974 32.69547,12.32908 33.70988,13.07039 34.49021,13.77267 35.15348,14.55299 35.58266,15.21629 35.81675,15.8795 35.85577,16.5819 35.6997,17.206 35.34856,17.7914 34.80234,18.4156 34.10004,19.0008 33.12465,19.547 32.03219,20.0933 30.70565,20.5615 29.18402,21.1077 27.50633,21.5759 25.59454,22.005 23.48768,22.4343 21.18572,22.8634 25.90668,33.6709 21.53687,35.5826 17.75231,37.2994 14.55299,38.7819 11.89991,39.9915 9.83205,40.9669 8.34943,41.7472 7.41306,42.2544 7.10092,42.4885 7.29601,42.5665 8.15436,42.3325 9.48093,41.8642 11.4707,41.201 14.0068,40.2646 17.089,39.0941 20.7566,37.6895 10.8074,16.6989 11.8999,17.089 12.9533,17.3622 13.8508,17.6742 14.709,17.8304 15.4114,17.9474 16.1136,18.0254 16.6208,18.0644 17.0501,18.0255 17.4401,17.9083 17.6743,17.7524 17.8304,17.5182 17.9083,17.2451 17.8694,16.8939 17.7523,16.5038 17.5182,16.0747 17.2061,15.5284 16.7769,14.9821 16.3088,14.3189 15.6454,13.6166 14.9822,12.9143 14.1628,12.056 13.3045,11.1976 12.29,10.2613 11.1977,9.3248 9.9881,8.2324 8.7396,7.1009 7.374,5.9695 5.9305,4.7599 4.3307,3.4725 2.6531,2.1068 0.8974,0.7413"
         transform="matrix(0.100119,0,0,-0.100119,188.504,291.972)"
         id="path138" />
    </g>
    <path
       fill-rule="nonzero"
       fill="#7f7f7f"
       fill-opacity="1"
       d="m 451.02102,229.3917 -0.5457,-1.52687 -0.54433,1.52687 0.54433,-0.61047"
       id="path139"
       style="stroke-width:0.352778" />
    <path
       fill="none"
       stroke-width="0.281502"
       stroke-linecap="butt"
       stroke-linejoin="miter"
       stroke="#7f7f7f"
       stroke-opacity="1"
       stroke-miterlimit="10"
       d="M 450.47532,242.88269 V 228.78122"
       id="path140" />
    <path
       fill-rule="nonzero"
       fill="#7f7f7f"
       fill-opacity="1"
       d="m 463.96631,243.4284 1.52687,-0.54571 -1.52687,-0.5457 0.61047,0.5457"
       id="path141"
       style="stroke-width:0.352778" />
    <path
       fill="none"
       stroke-width="0.281502"
       stroke-linecap="butt"
       stroke-linejoin="miter"
       stroke="#7f7f7f"
       stroke-opacity="1"
       stroke-miterlimit="10"
       d="m 450.47532,242.88269 h 14.10147"
       id="path142" />
    <path
       fill-rule="nonzero"
       fill="#7f7f7f"
       fill-opacity="1"
       d="m 449.93099,256.37369 0.54433,1.52687 0.5457,-1.52687 -0.5457,0.61047"
       id="path143"
       style="stroke-width:0.352778" />
    <path
       fill="none"
       stroke-width="0.281502"
       stroke-linecap="butt"
       stroke-linejoin="miter"
       stroke="#7f7f7f"
       stroke-opacity="1"
       stroke-miterlimit="10"
       d="m 450.47532,242.88269 v 14.10147"
       id="path144" />
    <path
       fill-rule="nonzero"
       fill="#7f7f7f"
       fill-opacity="1"
       d="m 436.92369,228.55937 -1.46623,-0.69454 0.69453,1.46624 -0.0455,-0.81856"
       id="path145"
       style="stroke-width:0.352778" />
    <path
       fill="none"
       stroke-width="0.281502"
       stroke-linecap="butt"
       stroke-linejoin="miter"
       stroke="#7f7f7f"
       stroke-opacity="1"
       stroke-miterlimit="10"
       d="m 450.47532,242.88269 -14.3688,-14.37018"
       id="path146" />
    <path
       fill-rule="nonzero"
       fill="#7f7f7f"
       fill-opacity="1"
       d="m 464.79865,229.33107 0.69453,-1.46624 -1.46485,0.69454 0.81717,-0.0469"
       id="path147"
       style="stroke-width:0.352778" />
    <path
       fill="none"
       stroke-width="0.281502"
       stroke-linecap="butt"
       stroke-linejoin="miter"
       stroke="#7f7f7f"
       stroke-opacity="1"
       stroke-miterlimit="10"
       d="M 450.47532,242.88269 464.8455,228.51251"
       id="path148" />
    <path
       fill-rule="nonzero"
       fill="#7f7f7f"
       fill-opacity="1"
       d="m 436.15199,256.4357 -0.69453,1.46486 1.46623,-0.69454 -0.81718,0.0469"
       id="path149"
       style="stroke-width:0.352778" />
    <path
       fill="none"
       stroke-width="0.281502"
       stroke-linecap="butt"
       stroke-linejoin="miter"
       stroke="#7f7f7f"
       stroke-opacity="1"
       stroke-miterlimit="10"
       d="m 450.47532,242.88269 -14.3688,14.37018"
       id="path150" />
    <path
       fill-rule="nonzero"
       fill="#7f7f7f"
       fill-opacity="1"
       d="m 436.9857,242.33699 -1.52824,0.5457 1.52824,0.54571 -0.61185,-0.54571"
       id="path151"
       style="stroke-width:0.352778" />
    <path
       fill="none"
       stroke-width="0.281502"
       stroke-linecap="butt"
       stroke-linejoin="miter"
       stroke="#7f7f7f"
       stroke-opacity="1"
       stroke-miterlimit="10"
       d="M 450.47532,242.88269 H 436.37386"
       id="path152" />
    <path
       fill-rule="nonzero"
       fill="#7f7f7f"
       fill-opacity="1"
       d="m 464.02833,257.20602 1.46485,0.69454 -0.69453,-1.46486 0.0469,0.81718"
       id="path153"
       style="stroke-width:0.352778" />
    <path
       fill="none"
       stroke-width="0.281502"
       stroke-linecap="butt"
       stroke-linejoin="miter"
       stroke="#7f7f7f"
       stroke-opacity="1"
       stroke-miterlimit="10"
       d="m 450.47532,242.88269 14.37018,14.37018"
       id="path154" />
    <g
       fill="#000000"
       fill-opacity="1"
       id="g154"
       transform="matrix(0.35277777,0,0,0.35277777,338.66957,177.54715)">
      <g
         id="use154"
         transform="translate(316.93063,185.20309)">
        <path
           d="M 1.996094,0 C 1.996094,-1.101562 1.101562,-1.996094 0,-1.996094 -1.101562,-1.996094 -1.996094,-1.101562 -1.996094,0 -1.996094,1.101562 -1.101562,1.996094 0,1.996094 1.101562,1.996094 1.996094,1.101562 1.996094,0"
           id="path27" />
      </g>
    </g>
    <g
       clip-path="url(#clip-1)"
       id="g155"
       transform="matrix(0.35277777,0,0,0.35277777,338.66957,177.54715)">
      <path
         fill="none"
         stroke-width="7.97011"
         stroke-linecap="butt"
         stroke-linejoin="miter"
         stroke="#bfbfbf"
         stroke-opacity="1"
         stroke-miterlimit="10"
         d="M 219.73757,3.42686 V 2129.4126"
         transform="matrix(0.100119,0,0,-0.100119,188.504,291.972)"
         id="path155" />
    </g>
    <g
       clip-path="url(#clip-2)"
       id="g156"
       transform="matrix(0.35277777,0,0,0.35277777,338.66957,177.54715)">
      <path
         fill="none"
         stroke-width="7.97011"
         stroke-linecap="butt"
         stroke-linejoin="miter"
         stroke="#bfbfbf"
         stroke-opacity="1"
         stroke-miterlimit="10"
         d="M 644.93471,3.42686 V 2129.4126"
         transform="matrix(0.100119,0,0,-0.100119,188.504,291.972)"
         id="path156" />
    </g>
    <g
       clip-path="url(#clip-3)"
       id="g157"
       transform="matrix(0.35277777,0,0,0.35277777,338.66957,177.54715)">
      <path
         fill="none"
         stroke-width="7.97011"
         stroke-linecap="butt"
         stroke-linejoin="miter"
         stroke="#bfbfbf"
         stroke-opacity="1"
         stroke-miterlimit="10"
         d="M 1070.1319,3.42686 V 2129.4126"
         transform="matrix(0.100119,0,0,-0.100119,188.504,291.972)"
         id="path157" />
    </g>
    <g
       clip-path="url(#clip-4)"
       id="g158"
       transform="matrix(0.35277777,0,0,0.35277777,338.66957,177.54715)">
      <path
         fill="none"
         stroke-width="7.97011"
         stroke-linecap="butt"
         stroke-linejoin="miter"
         stroke="#bfbfbf"
         stroke-opacity="1"
         stroke-miterlimit="10"
         d="M 1495.329,3.42686 V 2129.4126"
         transform="matrix(0.100119,0,0,-0.100119,188.504,291.972)"
         id="path158" />
    </g>
    <g
       clip-path="url(#clip-5)"
       id="g159"
       transform="matrix(0.35277777,0,0,0.35277777,338.66957,177.54715)">
      <path
         fill="none"
         stroke-width="7.97011"
         stroke-linecap="butt"
         stroke-linejoin="miter"
         stroke="#bfbfbf"
         stroke-opacity="1"
         stroke-miterlimit="10"
         d="M 1920.5261,3.42686 V 2129.4126"
         transform="matrix(0.100119,0,0,-0.100119,188.504,291.972)"
         id="path159" />
    </g>
    <g
       clip-path="url(#clip-6)"
       id="g160"
       transform="matrix(0.35277777,0,0,0.35277777,338.66957,177.54715)">
      <path
         fill="none"
         stroke-width="7.97011"
         stroke-linecap="butt"
         stroke-linejoin="miter"
         stroke="#bfbfbf"
         stroke-opacity="1"
         stroke-miterlimit="10"
         d="M 2345.7233,3.42686 V 2129.4126"
         transform="matrix(0.100119,0,0,-0.100119,188.504,291.972)"
         id="path160" />
    </g>
    <g
       clip-path="url(#clip-7)"
       id="g161"
       transform="matrix(0.35277777,0,0,0.35277777,338.66957,177.54715)">
      <path
         fill="none"
         stroke-width="7.97011"
         stroke-linecap="butt"
         stroke-linejoin="miter"
         stroke="#bfbfbf"
         stroke-opacity="1"
         stroke-miterlimit="10"
         d="M 219.73757,3.42686 H 2345.7233"
         transform="matrix(0.100119,0,0,-0.100119,188.504,291.972)"
         id="path161" />
    </g>
    <g
       clip-path="url(#clip-8)"
       id="g162"
       transform="matrix(0.35277777,0,0,0.35277777,338.66957,177.54715)">
      <path
         fill="none"
         stroke-width="7.97011"
         stroke-linecap="butt"
         stroke-linejoin="miter"
         stroke="#bfbfbf"
         stroke-opacity="1"
         stroke-miterlimit="10"
         d="M 219.73757,428.624 H 2345.7233"
         transform="matrix(0.100119,0,0,-0.100119,188.504,291.972)"
         id="path162" />
    </g>
    <g
       clip-path="url(#clip-9)"
       id="g163"
       transform="matrix(0.35277777,0,0,0.35277777,338.66957,177.54715)">
      <path
         fill="none"
         stroke-width="7.97011"
         stroke-linecap="butt"
         stroke-linejoin="miter"
         stroke="#bfbfbf"
         stroke-opacity="1"
         stroke-miterlimit="10"
         d="M 219.73757,853.82114 H 2345.7233"
         transform="matrix(0.100119,0,0,-0.100119,188.504,291.972)"
         id="path163" />
    </g>
    <g
       clip-path="url(#clip-10)"
       id="g164"
       transform="matrix(0.35277777,0,0,0.35277777,338.66957,177.54715)">
      <path
         fill="none"
         stroke-width="7.97011"
         stroke-linecap="butt"
         stroke-linejoin="miter"
         stroke="#bfbfbf"
         stroke-opacity="1"
         stroke-miterlimit="10"
         d="M 219.73757,1279.0183 H 2345.7233"
         transform="matrix(0.100119,0,0,-0.100119,188.504,291.972)"
         id="path164" />
    </g>
    <g
       clip-path="url(#clip-11)"
       id="g165"
       transform="matrix(0.35277777,0,0,0.35277777,338.66957,177.54715)">
      <path
         fill="none"
         stroke-width="7.97011"
         stroke-linecap="butt"
         stroke-linejoin="miter"
         stroke="#bfbfbf"
         stroke-opacity="1"
         stroke-miterlimit="10"
         d="M 219.73757,1704.2154 H 2345.7233"
         transform="matrix(0.100119,0,0,-0.100119,188.504,291.972)"
         id="path165" />
    </g>
    <g
       clip-path="url(#clip-12)"
       id="g166"
       transform="matrix(0.35277777,0,0,0.35277777,338.66957,177.54715)">
      <path
         fill="none"
         stroke-width="7.97011"
         stroke-linecap="butt"
         stroke-linejoin="miter"
         stroke="#bfbfbf"
         stroke-opacity="1"
         stroke-miterlimit="10"
         d="M 219.73757,2129.4126 H 2345.7233"
         transform="matrix(0.100119,0,0,-0.100119,188.504,291.972)"
         id="path166" />
    </g>
    <path
       fill="none"
       stroke-width="0.281502"
       stroke-linecap="butt"
       stroke-linejoin="miter"
       stroke="#000000"
       stroke-opacity="1"
       stroke-miterlimit="10"
       d="m 442.96639,250.39162 v -15.01786 h 15.01786 v 15.01786 h -15.01786"
       id="path167" />
  </g>
</svg>
